<svg xmlns="http://www.w3.org/2000/svg" id="Layer_1" height="512" viewBox="0 0 91 91" width="512" data-name="Layer 1"><path d="m34.66 65.6a31.23 31.23 0 1 1 22.08-53.32 31.24 31.24 0 0 1 -22.08 53.32zm0-60a28.75 28.75 0 1 0 20.34 8.4 28.68 28.68 0 0 0 -20.34-8.38z"></path><path d="m65.46 66.4a1.24 1.24 0 0 1 -.88-.36l-9.33-9.33a1.24 1.24 0 0 1 1.75-1.71l9.33 9.33a1.24 1.24 0 0 1 -.87 2.11z"></path><path d="m81.65 87.4a5.93 5.93 0 0 1 -4.22-1.74l-12.9-12.9a6 6 0 0 1 4.22-10.17 5.87 5.87 0 0 1 4.25 1.75l12.9 12.89a6 6 0 0 1 0 8.43 5.92 5.92 0 0 1 -4.25 1.74zm-12.9-22.33a3.47 3.47 0 0 0 -2.46 5.93l12.89 12.9a3.58 3.58 0 0 0 4.93 0 3.49 3.49 0 0 0 0-4.93l-12.9-12.9a3.46 3.46 0 0 0 -2.46-1z"></path><path d="m34.66 55a1.13 1.13 0 0 1 -.54-.13l-19-9.16a1.23 1.23 0 0 1 -.7-1.11v-20.47a1.24 1.24 0 0 1 1.75-1.13l19 9.16a1.24 1.24 0 0 1 .7 1.12v20.48a1.25 1.25 0 0 1 -.58 1.05 1.29 1.29 0 0 1 -.63.19zm-17.79-11.18 16.55 8v-17.76l-16.55-8z"></path><path d="m34.66 34.51a1.25 1.25 0 0 1 -.54-.12l-19-9.16a1.23 1.23 0 0 1 -.7-1.11 1.24 1.24 0 0 1 .68-1.12l19-9.14a1.25 1.25 0 0 1 1.07 0l19 9.16a1.24 1.24 0 0 1 .7 1.12 1.23 1.23 0 0 1 -.7 1.11l-19 9.14a1.24 1.24 0 0 1 -.51.12zm-16.17-10.39 16.17 7.78 16.17-7.77-16.17-7.78z"></path><path d="m34.66 55a1.3 1.3 0 0 1 -.66-.19 1.25 1.25 0 0 1 -.58-1.05v-20.47a1.24 1.24 0 0 1 .7-1.12l19-9.16a1.24 1.24 0 0 1 1.77 1.12v20.47a1.23 1.23 0 0 1 -.7 1.11l-19 9.16a1.12 1.12 0 0 1 -.53.13zm1.23-20.93v17.72l16.55-8v-17.69z"></path><path d="m25.14 29.93a1.21 1.21 0 0 1 -1.11-.7 1.23 1.23 0 0 1 .58-1.65l19-9.14a1.24 1.24 0 0 1 1.07 2.24l-19 9.13a1.18 1.18 0 0 1 -.54.12z"></path><path d="m27.69 38.92a1.12 1.12 0 0 1 -.53-.13l-5.62-2.7a1.24 1.24 0 1 1 1.07-2.23l5.62 2.7a1.24 1.24 0 0 1 -.54 2.36z"></path></svg>