<svg xmlns="http://www.w3.org/2000/svg" height="512pt" viewBox="-16 0 512 512" width="512pt"><path d="m410 80c5.523438 0 10-4.476562 10-10v-60c0-5.394531-4.410156-10-10-10h-60c-5.523438 0-10 4.476562-10 10s4.476562 10 10 10h37.734375l-25.617187 28.824219c-74.109376 83.363281-180.582032 131.175781-292.117188 131.175781-5.523438 0-10 4.476562-10 10s4.476562 10 10 10c117.242188 0 229.164062-50.257812 307.0625-137.886719l22.9375-25.808593v33.695312c0 5.523438 4.476562 10 10 10zm0 0"></path><path d="m470 492h-10v-362c0-5.523438-4.476562-10-10-10h-60c-5.523438 0-10 4.476562-10 10v362h-40v-282c0-5.523438-4.476562-10-10-10h-60c-5.523438 0-10 4.476562-10 10v282h-40v-222c0-5.523438-4.476562-10-10-10h-60c-5.523438 0-10 4.476562-10 10v222h-40v-162c0-5.523438-4.476562-10-10-10h-60c-5.523438 0-10 4.476562-10 10v162h-10c-5.523438 0-10 4.476562-10 10s4.476562 10 10 10h460c5.523438 0 10-4.476562 10-10s-4.476562-10-10-10zm-70-352h40v352h-40zm-120 80h40v272h-40zm-120 60h40v212h-40zm-120 60h40v152h-40zm0 0"></path></svg>