<svg xmlns="http://www.w3.org/2000/svg" id="Layer_1" height="512" viewBox="0 0 512 512" width="512"><path d="m512 138.681c0-10.349-4.015-20.063-11.306-27.354l-8.679-8.679c-7.291-7.29-17.005-11.306-27.354-11.306-5.665 0-11.137 1.211-16.129 3.497v-34.379c0-25.985-21.141-47.126-47.126-47.126h-310.894c-25.985 0-47.126 21.141-47.126 47.126v19.93h-22.036c-11.772 0-21.35 9.577-21.35 21.349v14.833c0 11.772 9.578 21.35 21.35 21.35h22.036v40.364h-22.036c-11.772 0-21.35 9.577-21.35 21.35v14.833c0 11.771 9.578 21.349 21.35 21.349h22.036v40.365h-22.036c-11.772 0-21.35 9.577-21.35 21.348v14.833c0 11.772 9.578 21.35 21.35 21.35h22.036v40.364h-22.036c-11.772 0-21.35 9.577-21.35 21.35v14.833c0 11.772 9.578 21.35 21.35 21.35h22.036v19.93c0 25.985 21.141 47.126 47.126 47.126h310.894c25.986 0 47.126-21.141 47.126-47.126v-233.345l52.161-52.161c7.291-7.291 11.307-17.006 11.307-27.354zm-496-22.109v-14.833c0-2.899 2.45-5.35 5.35-5.35h50.374c2.9 0 5.35 2.45 5.35 5.35v14.833c0 2.899-2.45 5.35-5.35 5.35h-50.374c-2.9 0-5.35-2.45-5.35-5.35zm0 97.897v-14.833c0-2.899 2.45-5.35 5.35-5.35h50.374c2.9 0 5.35 2.45 5.35 5.35v14.833c0 2.899-2.45 5.349-5.35 5.349h-50.374c-2.9-.001-5.35-2.45-5.35-5.349zm0 97.895v-14.833c0-2.899 2.45-5.349 5.35-5.349h50.374c2.9 0 5.35 2.449 5.35 5.349v14.833c0 2.899-2.45 5.35-5.35 5.35h-50.374c-2.9 0-5.35-2.45-5.35-5.35zm0 97.897v-14.833c0-2.899 2.45-5.35 5.35-5.35h50.374c2.9 0 5.35 2.45 5.35 5.35v14.833c0 2.899-2.45 5.35-5.35 5.35h-50.374c-2.9-.001-5.35-2.451-5.35-5.35zm43.386 41.279v-19.93h12.337c11.772 0 21.35-9.577 21.35-21.35v-14.833c0-11.772-9.578-21.35-21.35-21.35h-12.337v-40.364h12.337c11.772 0 21.35-9.577 21.35-21.35v-14.833c0-11.771-9.578-21.349-21.35-21.349h-12.337v-40.365h12.337c11.772 0 21.35-9.577 21.35-21.349v-14.833c0-11.772-9.578-21.35-21.35-21.35h-12.337v-40.364h12.337c11.772 0 21.35-9.577 21.35-21.35v-14.833c0-11.772-9.578-21.35-21.35-21.35h-12.337v-19.927c0-17.163 13.963-31.126 31.126-31.126h26.688v453.332h-26.688c-17.163 0-31.126-13.963-31.126-31.126zm373.147 0c0 17.163-13.963 31.126-31.126 31.126h-268.207v-453.332h268.206c17.163 0 31.126 13.963 31.126 31.126v46.964l-42.047 42.047v-17.357c0-9.925-8.075-18-18-18h-179.238c-9.925 0-18 8.075-18 18v42.963c0 9.925 8.075 18 18 18h153.633l-130.011 130.011c-.993.993-1.707 2.23-2.071 3.587l-19.06 71.132c-.74 2.761.05 5.706 2.071 7.728 1.52 1.52 3.563 2.343 5.657 2.343.69 0 1.386-.089 2.07-.272l71.132-19.06c1.356-.363 2.594-1.078 3.586-2.07l152.278-152.279v217.343zm-69.653-274.464h-169.633c-1.084 0-2-.916-2-2v-42.963c0-1.084.916-2 2-2h179.239c1.084 0 2 .916 2 2v33.357zm-136.214 167.124 32.476 32.476-44.364 11.887zm262.714-189.48-214.782 214.783-40.758-40.758 214.782-214.782c8.845-8.846 23.235-8.846 32.08 0l8.679 8.679c4.269 4.268 6.62 9.964 6.62 16.039s-2.352 11.771-6.621 16.039z"></path></svg>