<svg xmlns="http://www.w3.org/2000/svg" id="Layer_1" height="512" viewBox="0 0 512 512" width="512"><path d="m289.3 194.3c-16.1 0-29.6 11.7-32.3 27.1l-108 52.8h-75.6c-14.3 0-26 11.5-26.3 25.8h-6c-9.9 0-17.9 8-17.9 17.9v40.5c0 9.9 8 17.9 17.9 17.9h6c.2 11.1 7.4 20.6 17.4 24.2v19.4c0 .9.2 1.9.5 2.8l28.4 77.6c2.6 7.2 9.3 11.9 17 11.9h42.4c6.1 0 11.6-2.9 15-8s4.1-11.2 1.8-16.9l-18.9-47.4h11.6c8.9 0 16.2-7.2 16.2-16.1v-7.4l78.5 38.4c2.7 15.4 16.1 27.1 32.3 27.1 18.1 0 32.8-14.7 32.8-32.8v-222.1c0-18-14.7-32.7-32.8-32.7zm-130.5 194.6v-101.7l97.7-47.8v197.2zm-119.6-30.6v-40.5c0-1 .9-1.9 1.9-1.9h6v44.2h-6c-1 0-1.9-.8-1.9-1.8zm23.9-57.8c0-5.7 4.6-10.3 10.3-10.3h69.4v95.7h-69.2c-.4 0-.7-.1-1.1-.1-.1 0-.2 0-.2 0-5.1-.6-9.1-5-9.1-10.3v-75zm91.4 194.6c-.5.7-1 .9-1.8.9h-42.4c-1 0-1.7-.5-2-1.4l-27.9-76.3v-16.5h39.8v2.9c0 1 .2 2 .6 3l34 85.3c.2.8.2 1.4-.3 2.1zm8-71.4s-.1.1-.2.1h-18l-8.2-20.5v-1.4h12.9l13.6 6.6zm143.6 25.3c0 9.3-7.5 16.8-16.8 16.8s-16.8-7.5-16.8-16.8v-222c0-9.3 7.5-16.8 16.8-16.8s16.8 7.5 16.8 16.8zm168.9-363.9h-74.8v-68.9c0-8.9-7.2-16.2-16.1-16.2h-149.7c-8.9 0-16.2 7.3-16.2 16.2v68.9h-74.8c-7.6 0-13.8 6.2-13.8 13.8v81.7c0 7.6 6.2 13.8 13.8 13.8h35.4l46.1 26.6c1.2.7 2.6 1.1 4 1.1s2.8-.4 4-1.1c2.5-1.4 4-4.1 4-6.9v-19.7h11.7c7.6 0 13.8-6.2 13.8-13.8v-31.9h19.6l20.4 35.4c1.4 2.5 4.1 4 6.9 4s5.5-1.5 6.9-4l20.4-35.4h19.6v31.9c0 7.6 6.2 13.8 13.8 13.8h11.7v19.6c0 2.9 1.5 5.5 4 6.9 1.2.7 2.6 1.1 4 1.1s2.8-.4 4-1.1l46.1-26.6h35.2c7.6 0 13.8-6.2 13.8-13.8v-81.7c0-7.5-6.2-13.7-13.8-13.7zm-228.7 93.2h-17.4c-4.4 0-8 3.6-8 8v13.8l-35.9-20.7c-1.2-.7-2.6-1.1-4-1.1h-35.3v-77.2h100.6zm109.8-79.5v33.8h-24.1c-2.9 0-5.5 1.5-6.9 4l-15.9 27.4-15.8-27.4c-1.4-2.5-4.1-4-6.9-4h-24.2v-33.8c0-7.6-6.2-13.8-13.8-13.8h-14.3v-68.8c0-.1.1-.2.2-.2h149.6c.1 0 .2.1.2.2v68.9h-14.3c-7.6 0-13.8 6.2-13.8 13.7zm116.7 79.5h-35.3c-1.4 0-2.8.4-4 1.1l-35.9 20.7v-13.8c0-4.4-3.6-8-8-8h-17.4v-77.2h100.6zm-145.4-151c-7 0-13.7 2.1-19.4 5.9-5.2-2.9-11-4.5-17-4.5-19.2 0-34.7 15.6-34.7 34.7 0 18.9 21.7 38.4 37.6 52.6 3.6 3.2 6.7 6 9 8.3 1.6 1.6 3.6 2.3 5.7 2.3 2 0 4.1-.8 5.7-2.3 2.1-2.1 5.1-4.8 8.6-7.9 16.6-15.1 39.4-35.7 39.4-54.4-.1-19.1-15.7-34.7-34.9-34.7zm-15.4 77.3c-1.2 1.1-2.4 2.2-3.5 3.2-1.2-1.1-2.6-2.3-3.9-3.6-12.1-10.9-32.3-29-32.3-40.7 0-10.3 8.4-18.7 18.7-18.7 4.5 0 8.8 1.6 12.2 4.5 3.2 2.7 7.9 2.6 10.9-.4 3.6-3.6 8.3-5.5 13.3-5.5 10.3 0 18.7 8.4 18.7 18.7.1 11.6-22.2 31.7-34.1 42.5zm-93.1 28.2-37.8-21.8c-2.5-1.4-5.5-1.4-8 0s-4 4.1-4 6.9v21.8 21.8c0 2.9 1.5 5.5 4 6.9 1.2.7 2.6 1.1 4 1.1s2.8-.4 4-1.1l37.7-21.8c2.5-1.4 4-4.1 4-6.9s-1.4-5.5-3.9-6.9zm-33.8 14.8v-15.9l13.7 7.9zm206.1-9.4c0-4.4 3.6-8 8-8s8 3.6 8 8-3.6 8-8 8c-4.4 0-8-3.5-8-8zm23.2 0c0-4.4 3.6-8 8-8s8 3.6 8 8-3.6 8-8 8c-4.4 0-8-3.5-8-8zm23.3 0c0-4.4 3.6-8 8-8s8 3.6 8 8-3.6 8-8 8c-4.4 0-8-3.5-8-8z"></path></svg>